<?xml version="1.0" encoding="UTF-8" standalone="no"?>
<svg width="35px" height="35px" viewBox="0 0 35 35" version="1.1" xmlns="http://www.w3.org/2000/svg" xmlns:xlink="http://www.w3.org/1999/xlink">
    <!-- Generator: Sketch 3.7 (28169) - http://www.bohemiancoding.com/sketch -->
    <title>Rectangle 654</title>
    <desc>Created with Sketch.</desc>
    <defs>
        <polygon id="path-1" points="6.92620967 13.3112432 13.8524193 13.3112432 13.8524193 0.00548917246 0 0.00548917246 0 13.3112432"></polygon>
        <polygon id="path-3" points="28.8781933 28.8781836 28.8781933 0.0338514906 0 0.0338514906 0 28.8781836"></polygon>
    </defs>
    <g id="后台管理_众筹清算" stroke="none" stroke-width="1" fill="none" fill-rule="evenodd">
        <g id="Group" transform="translate(2.000000, 3.000000)">
            <g id="Page-1" transform="translate(15.783043, 15.549796)">
                <mask id="mask-2" fill="white">
                    <use xlink:href="#path-1"></use>
                </mask>
                <g id="Clip-2"></g>
                <path d="M6.29164512,0.752016628 C2.81585656,0.752016628 0,3.56245578 0,7.03166423 C0,10.5007869 2.81585656,13.3112432 6.29164512,13.3112432 C9.76750243,13.3112432 12.583359,10.5007869 12.583359,7.03166423 L6.29164512,7.03166423 L6.29164512,0.752016628 L6.29164512,0.752016628 Z" id="Fill-1" fill="#FFFFFF" mask="url(#mask-2)"></path>
                <path d="M6.95164587,0.00548917246 L6.95164587,6.28506816 L11.263409,1.71811098 C10.1195017,0.664155561 8.62359507,0.00548917246 6.95164587,0.00548917246 L6.95164587,0.00548917246 Z" id="Fill-3" fill="#FFFFFF" mask="url(#mask-2)"></path>
                <path d="M13.8592596,6.63639236 C13.8592596,4.83599525 13.1113149,3.21114874 11.8793777,2.06941802 L7.56761449,6.63639236 L7.56761449,6.68034004 L13.8592596,6.68034004 L13.8592596,6.63639236 Z" id="Fill-4" fill="#FFFFFF" mask="url(#mask-2)"></path>
            </g>
            <g id="Page-1">
                <mask id="mask-4" fill="white">
                    <use xlink:href="#path-3"></use>
                </mask>
                <g id="Clip-2"></g>
                <path d="M1.46480928,7.61851871 C1.46480928,7.61851871 4.09463126,3.56538143 8.25588006,1.39052555 C12.4170229,-0.784295058 17.5437142,-0.158177747 20.9059761,1.95070609 C24.2682028,4.05973096 25.4001008,5.83910721 25.4001008,5.83910721 L28.2962518,4.191534 C28.2962518,4.191534 28.8955625,3.8949948 28.8955625,4.58697837 L28.8955625,14.9340809 C28.8955625,14.9340809 28.8955625,15.8567726 28.1964137,15.5271593 C27.6082235,15.2500485 21.2478191,11.6376651 19.2435383,10.4980166 C18.1429191,10.0076867 19.1099149,9.60935103 19.1099149,9.60935103 L21.9046744,8.01396308 C21.9046744,8.01396308 20.3104781,6.01995734 17.9773108,4.96394633 C15.4797354,3.6642866 13.1415549,3.51016378 10.2774242,4.5901518 C8.40980294,5.29422965 6.21092976,7.09719504 4.62721857,9.76044146 L1.46480928,7.61851871 L1.46480928,7.61851871 Z M17.4786375,28.6287947 C14.0941393,29.305132 10.5359081,28.5584903 7.9895864,26.9613018 C4.62721857,24.8522769 3.4954617,23.0728654 3.4954617,23.0728654 L0.599204858,24.7204739 C0.599204858,24.7204739 0,25.0171541 0,24.3250295 L0,13.977927 C0,13.977927 0,13.0553763 0.699042915,13.3848134 C1.28719781,13.6621005 7.64774343,17.2743428 9.6520242,18.4140971 C10.7526435,18.9044269 9.78568293,19.3026216 9.78568293,19.3026216 L6.9908881,20.8980448 C6.9908881,20.8980448 8.5850844,22.8920153 10.9182871,23.9480616 C12.2216111,24.6263088 13.4815539,24.9925767 14.7955311,25.0342766 C15.2384758,26.5273331 16.2033193,27.7959805 17.4786375,28.6287947 Z M27.1995155,21.1368419 L27.4307533,21.2934539 C27.4307533,21.2934539 27.3874149,21.3602486 27.3030618,21.4812895 C27.2716523,21.3651521 27.2371046,21.250304 27.1995155,21.1368419 Z" id="Fill-1" fill="#FFFFFF" mask="url(#mask-4)"></path>
            </g>
        </g>
    </g>
</svg>