<?xml version="1.0" encoding="utf-8"?>
<!-- Generator: Adobe Illustrator 17.0.0, SVG Export Plug-In . SVG Version: 6.00 Build 0)  -->
<!DOCTYPE svg PUBLIC "-//W3C//DTD SVG 1.1//EN" "http://www.w3.org/Graphics/SVG/1.1/DTD/svg11.dtd">
<svg version="1.1" id="houtai_x5F_seachicon" xmlns="http://www.w3.org/2000/svg" xmlns:xlink="http://www.w3.org/1999/xlink"
	 x="0px" y="0px" width="32px" height="33px" viewBox="0 0 32 33" enable-background="new 0 0 32 33" xml:space="preserve">
<path id="Shape" fill="#AAB8C2" d="M12.579,15.498H5.172v1.475h6.635C12.023,16.457,12.281,15.964,12.579,15.498L12.579,15.498
	L12.579,15.498z M5.172,19.923v1.475H11.1c-0.018-0.243-0.028-0.489-0.028-0.737c0-0.248,0.01-0.494,0.028-0.738H5.172L5.172,19.923
	L5.172,19.923z M13.102,26.56H2.96c-0.815,0-1.475-0.66-1.475-1.475V2.962c0-0.815,0.661-1.475,1.475-1.475h13.274v6.637
	c0,1.629,1.321,2.95,2.95,2.95h5.9v1.081c0.522,0.272,1.015,0.59,1.475,0.949v-2.768l-0.261-0.261l0.045-0.261L17.24,0.012h-2.062
	h-0.762h-0.394H2.96c-1.629,0-2.95,1.321-2.95,2.95v22.124c0,1.629,1.321,2.95,2.95,2.95h11.574
	C14.006,27.596,13.525,27.102,13.102,26.56L13.102,26.56L13.102,26.56z M17.709,2.712l6.457,6.887h-4.982
	c-0.815,0-1.475-0.661-1.475-1.475L17.709,2.712L17.709,2.712L17.709,2.712z M5.172,12.549h7.375v-1.475H5.172V12.549L5.172,12.549
	L5.172,12.549z M31.774,30.733l-3.839-3.839c-0.321,0.375-0.669,0.722-1.043,1.043l3.839,3.839c0.287,0.288,0.755,0.288,1.043,0
	C32.062,31.487,32.062,31.021,31.774,30.733L31.774,30.733L31.774,30.733z M20.659,12.549c-4.48,0-8.112,3.632-8.112,8.112
	s3.632,8.112,8.112,8.112s8.112-3.632,8.112-8.112S25.14,12.549,20.659,12.549L20.659,12.549L20.659,12.549z M20.659,27.298
	c-3.666,0-6.637-2.971-6.637-6.637s2.971-6.637,6.637-6.637s6.637,2.971,6.637,6.637C27.297,24.326,24.325,27.298,20.659,27.298
	L20.659,27.298L20.659,27.298z M12.547,6.649H5.172v1.475h7.375V6.649L12.547,6.649L12.547,6.649z M15.497,20.661
	c0,0.251,0.024,0.496,0.058,0.737h5.841v-1.475h-5.841C15.521,20.165,15.497,20.409,15.497,20.661L15.497,20.661L15.497,20.661z
	 M17.05,16.974h4.347v-1.416c-0.241-0.035-0.486-0.059-0.737-0.059C19.254,15.498,17.981,16.062,17.05,16.974L17.05,16.974
	L17.05,16.974z"/>
</svg>
