<?xml version="1.0" encoding="utf-8"?>
<!-- Generator: Adobe Illustrator 17.0.0, SVG Export Plug-In . SVG Version: 6.00 Build 0)  -->
<!DOCTYPE svg PUBLIC "-//W3C//DTD SVG 1.1//EN" "http://www.w3.org/Graphics/SVG/1.1/DTD/svg11.dtd">
<svg version="1.1" id="houtai_x5F_nav_x5F_3_x5F_b" xmlns="http://www.w3.org/2000/svg" xmlns:xlink="http://www.w3.org/1999/xlink"
	 x="0px" y="0px" width="35px" height="35px" viewBox="0 0 35 35" enable-background="new 0 0 35 35" xml:space="preserve">
<path id="Shape" fill="#FFFFFF" d="M23.811,18.512c-2.343-0.776-2.36-1.556-2.36-1.556c-4.6,8.573-8.099,0.028-8.099,0.028
	c-0.32,1.156-5.06,2.513-5.06,2.513c-1.385,0.502-1.966,1.258-1.966,1.258c-2.048,2.865-2.29,9.255-2.29,9.255
	c0.029,1.458,0.692,1.611,0.692,1.611c4.711,1.984,12.097,2.336,12.097,2.336c7.583,0.153,13.105-2.034,13.105-2.034
	c0.799-0.482,0.824-0.858,0.824-0.858c0.561-4.575-1.835-9.733-1.835-9.733C28.203,19.821,23.811,18.512,23.811,18.512z
	 M16.852,23.005c0.389,0.529,1.023,0.527,1.41,0l0.513-0.697c0.389-0.529,0.17-0.958-0.491-0.958H16.83
	c-0.66,0-0.878,0.431-0.491,0.958L16.852,23.005z M16.716,24.803c0.491-0.596,1.282-0.601,1.777,0l-0.335-0.407
	c0.491,0.596,0.795,1.699,0.679,2.455c0,0-0.966,6.525-1.232,6.525c-0.29,0-1.236-6.525-1.236-6.525
	c-0.114-0.76,0.188-1.855,0.682-2.455L16.716,24.803z"/>
<path id="Shape_1_" fill="#FFFFFF" d="M16.896,2.247l-0.098-0.031c0.078-0.231,0.205-0.443,0.405-0.631
	C17.068,1.761,16.953,1.981,16.896,2.247L16.896,2.247z M23.123,9.852c0.258-0.729,1.114-3.567-0.545-5.335c0,0-0.774-1-2.663-1.533
	l-0.881-0.286c-0.348-0.239-1.049-0.804-1.049-1.427c0,0-0.434,0.192-0.692,0.545c0.102-0.286,0.27-0.561,0.545-0.78
	c0,0-0.287,0.141-0.553,0.447c-0.205,0.106-0.676,0.408-0.832,0.952l0.008-0.039c0,0-0.094-0.118-0.356-0.157
	c-0.262-0.035-0.717,0.129-0.717,0.129s-2.749,1.019-3.548,3.356c0,0-0.471,1.058,0.148,4.167c-0.881-0.396-0.279,1.65-0.279,1.65
	c0.094,0.545,0.336,0.784,0.479,0.882c0.356,2.76,2.868,5.613,5.141,5.613c2.622,0,5.108-2.999,5.498-5.613
	c0.147-0.098,0.389-0.337,0.479-0.882C23.307,11.542,23.864,9.648,23.123,9.852L23.123,9.852z"/>
</svg>
