<?xml version="1.0" encoding="utf-8"?>
<!-- Generator: Adobe Illustrator 17.0.0, SVG Export Plug-In . SVG Version: 6.00 Build 0)  -->
<!DOCTYPE svg PUBLIC "-//W3C//DTD SVG 1.1//EN" "http://www.w3.org/Graphics/SVG/1.1/DTD/svg11.dtd">
<svg version="1.1" id="houtai_x5F_seach" xmlns="http://www.w3.org/2000/svg" xmlns:xlink="http://www.w3.org/1999/xlink" x="0px"
	 y="0px" width="15px" height="15px" viewBox="0 0 15 15" enable-background="new 0 0 15 15" xml:space="preserve">
<path id="Shape" fill="#388BED" d="M6.466,12.934c-3.565,0-6.465-2.9-6.465-6.465s2.9-6.465,6.465-6.465s6.466,2.9,6.466,6.465
	S10.031,12.934,6.466,12.934 M6.466,1.595c-2.688,0-4.874,2.186-4.874,4.874c0,2.687,2.186,4.874,4.874,4.874
	s4.874-2.186,4.874-4.874S9.154,1.595,6.466,1.595"/>
<path id="Shape_1_" fill="#388BED" d="M14.018,14.999c-0.251,0-0.501-0.096-0.693-0.287l-3.378-3.378
	c-0.382-0.382-0.382-1.003,0-1.385c0.383-0.382,1.003-0.382,1.385,0l3.378,3.378c0.382,0.382,0.382,1.003,0,1.385
	C14.519,14.904,14.268,14.999,14.018,14.999"/>
</svg>
