<?xml version="1.0" encoding="utf-8"?>
<!-- Generator: Adobe Illustrator 17.0.0, SVG Export Plug-In . SVG Version: 6.00 Build 0)  -->
<!DOCTYPE svg PUBLIC "-//W3C//DTD SVG 1.1//EN" "http://www.w3.org/Graphics/SVG/1.1/DTD/svg11.dtd">
<svg version="1.1" id="houtai_x5F_nav_x5F_4_x5F_c" xmlns="http://www.w3.org/2000/svg" xmlns:xlink="http://www.w3.org/1999/xlink"
	 x="0px" y="0px" width="35px" height="35px" viewBox="0 0 35 35" enable-background="new 0 0 35 35" xml:space="preserve">
<path id="Shape" fill="#388BED" d="M25.725,17.487c0.033,0.196,0.026,0.431-0.026,0.708c-0.047,0.277-0.129,0.559-0.244,0.842
	c-0.115,0.285-0.252,0.542-0.414,0.769c-0.162,0.229-0.344,0.391-0.537,0.489c-0.196,0.099-0.367,0.148-0.514,0.148
	c-0.146,0-0.308-0.032-0.487-0.097c-0.162-0.049-0.367-0.093-0.61-0.135c-0.246-0.04-0.493-0.047-0.746-0.024
	c-0.252,0.024-0.504,0.077-0.755,0.158c-0.251,0.08-0.47,0.221-0.646,0.415c-0.391,0.407-0.622,0.871-0.686,1.393
	c-0.064,0.521,0.009,1.017,0.221,1.49c0.162,0.327,0.138,0.65-0.073,0.977c-0.097,0.13-0.255,0.265-0.464,0.403
	c-0.212,0.139-0.446,0.265-0.696,0.38c-0.251,0.115-0.517,0.203-0.795,0.269c-0.277,0.063-0.52,0.096-0.734,0.096
	c-0.146,0-0.282-0.057-0.414-0.17c-0.129-0.115-0.218-0.238-0.269-0.367H16.81c-0.179-0.506-0.484-0.94-0.915-1.307
	c-0.431-0.367-0.931-0.55-1.503-0.55c-0.553,0-1.054,0.183-1.501,0.55c-0.448,0.367-0.762,0.794-0.941,1.282
	c-0.082,0.196-0.203,0.338-0.367,0.428c-0.16,0.089-0.34,0.133-0.536,0.133c-0.228,0-0.484-0.04-0.769-0.123
	c-0.285-0.082-0.57-0.183-0.855-0.305c-0.285-0.122-0.542-0.265-0.769-0.428c-0.228-0.162-0.398-0.325-0.513-0.487
	c-0.082-0.115-0.126-0.249-0.135-0.403c-0.009-0.155,0.053-0.371,0.183-0.648c0.179-0.375,0.248-0.802,0.208-1.284
	c-0.04-0.48-0.248-0.924-0.623-1.331c-0.228-0.245-0.504-0.403-0.829-0.476c-0.327-0.074-0.635-0.102-0.928-0.086
	c-0.342,0.016-0.692,0.082-1.05,0.196c-0.228,0.064-0.456,0.047-0.685-0.05c-0.179-0.064-0.345-0.215-0.501-0.45
	c-0.155-0.236-0.292-0.499-0.415-0.782c-0.122-0.285-0.215-0.577-0.281-0.88C3.017,17.93,3,17.682,3.033,17.486
	c0.049-0.358,0.211-0.586,0.489-0.683c0.489-0.196,0.927-0.517,1.318-0.966c0.391-0.448,0.586-0.948,0.586-1.503
	c0-0.569-0.195-1.066-0.586-1.49s-0.831-0.732-1.318-0.928c-0.143-0.046-0.265-0.163-0.362-0.351s-0.147-0.38-0.147-0.573
	c0-0.212,0.033-0.448,0.097-0.709S3.26,9.77,3.366,9.525c0.106-0.244,0.229-0.467,0.367-0.672c0.139-0.202,0.289-0.354,0.451-0.451
	c0.13-0.082,0.258-0.113,0.38-0.097C4.685,8.32,4.82,8.353,4.966,8.402c0.489,0.196,0.997,0.256,1.527,0.183
	C7.022,8.512,7.49,8.28,7.897,7.89c0.195-0.196,0.337-0.437,0.427-0.72c0.089-0.287,0.148-0.567,0.17-0.844
	c0.026-0.277,0.026-0.529,0-0.756C8.472,5.34,8.45,5.178,8.434,5.081C8.401,4.984,8.373,4.869,8.348,4.739
	c-0.024-0.13-0.011-0.245,0.036-0.342C8.482,4.168,8.656,3.969,8.91,3.799c0.252-0.17,0.524-0.314,0.818-0.428
	c0.294-0.113,0.579-0.198,0.855-0.256c0.277-0.057,0.497-0.086,0.659-0.086c0.211,0,0.378,0.069,0.501,0.208
	c0.122,0.139,0.206,0.282,0.255,0.428c0.179,0.44,0.473,0.825,0.88,1.16c0.407,0.334,0.888,0.501,1.441,0.501
	c0.57,0,1.074-0.159,1.514-0.477c0.44-0.318,0.749-0.721,0.928-1.209c0.064-0.13,0.168-0.265,0.305-0.403
	c0.138-0.139,0.279-0.208,0.428-0.208c0.226,0,0.476,0.032,0.745,0.097c0.269,0.064,0.534,0.155,0.792,0.269
	c0.264,0.113,0.504,0.261,0.722,0.44c0.221,0.179,0.394,0.374,0.526,0.586c0.082,0.13,0.106,0.272,0.073,0.427
	s-0.064,0.265-0.097,0.329c-0.212,0.473-0.277,0.968-0.196,1.49c0.082,0.52,0.319,0.977,0.708,1.368
	c0.391,0.391,0.872,0.606,1.441,0.648c0.57,0.04,1.1-0.053,1.589-0.281c0.129-0.082,0.288-0.115,0.476-0.097
	c0.188,0.017,0.344,0.09,0.476,0.219c0.244,0.228,0.458,0.574,0.646,1.039s0.314,0.933,0.378,1.404
	c0.033,0.277-0.011,0.493-0.132,0.648c-0.123,0.153-0.249,0.256-0.381,0.305c-0.504,0.179-0.934,0.493-1.292,0.94
	s-0.537,0.957-0.537,1.526c0,0.554,0.15,1.039,0.45,1.454c0.302,0.414,0.696,0.712,1.183,0.891c0.115,0.064,0.212,0.13,0.294,0.195
	C25.537,17.072,25.661,17.26,25.725,17.487L25.725,17.487L25.725,17.487z M14.368,19.685c0.732,0,1.425-0.139,2.074-0.416
	c0.652-0.277,1.218-0.659,1.699-1.148c0.481-0.49,0.86-1.054,1.136-1.698c0.277-0.643,0.414-1.332,0.414-2.063
	c0-0.733-0.138-1.421-0.414-2.063c-0.277-0.643-0.655-1.206-1.136-1.686c-0.481-0.48-1.046-0.86-1.699-1.136
	c-0.649-0.277-1.344-0.416-2.074-0.416c-0.732,0-1.421,0.139-2.064,0.416c-0.642,0.277-1.205,0.656-1.683,1.136
	c-0.48,0.48-0.86,1.043-1.136,1.686C9.208,12.939,9.07,13.628,9.07,14.36c0,0.732,0.139,1.42,0.415,2.063
	c0.277,0.642,0.656,1.208,1.136,1.698c0.48,0.489,1.043,0.87,1.685,1.148C12.949,19.546,13.636,19.685,14.368,19.685L14.368,19.685
	L14.368,19.685z"/>
<path id="Shape_1_" fill="#388BED" d="M32.962,28.727c0.017,0.101,0.013,0.221-0.013,0.363c-0.024,0.142-0.066,0.287-0.125,0.432
	c-0.059,0.146-0.129,0.278-0.212,0.395c-0.083,0.118-0.176,0.201-0.276,0.251c-0.101,0.051-0.188,0.076-0.264,0.076
	c-0.075,0-0.158-0.016-0.25-0.05c-0.083-0.025-0.188-0.048-0.313-0.069c-0.126-0.021-0.253-0.024-0.383-0.012
	c-0.129,0.012-0.259,0.04-0.387,0.081c-0.129,0.041-0.241,0.113-0.331,0.213c-0.201,0.209-0.319,0.447-0.352,0.714
	c-0.033,0.267,0.004,0.522,0.113,0.764c0.083,0.168,0.071,0.334-0.038,0.501c-0.05,0.067-0.131,0.136-0.238,0.206
	c-0.109,0.071-0.229,0.136-0.357,0.195c-0.129,0.059-0.265,0.104-0.408,0.138c-0.142,0.032-0.267,0.049-0.376,0.049
	c-0.075,0-0.145-0.029-0.212-0.087c-0.066-0.059-0.112-0.122-0.138-0.188H28.39c-0.092-0.259-0.248-0.482-0.469-0.67
	s-0.478-0.282-0.771-0.282c-0.284,0-0.541,0.094-0.77,0.282c-0.23,0.188-0.391,0.407-0.483,0.658
	c-0.042,0.101-0.104,0.173-0.188,0.22c-0.082,0.046-0.174,0.068-0.275,0.068c-0.117,0-0.248-0.021-0.395-0.063
	c-0.146-0.042-0.292-0.094-0.439-0.157c-0.146-0.062-0.278-0.136-0.395-0.22c-0.117-0.083-0.204-0.167-0.263-0.25
	c-0.042-0.059-0.065-0.128-0.069-0.206c-0.004-0.079,0.027-0.19,0.094-0.332c0.092-0.192,0.127-0.411,0.107-0.658
	c-0.021-0.246-0.127-0.474-0.32-0.683c-0.117-0.126-0.259-0.206-0.425-0.244c-0.168-0.038-0.325-0.052-0.476-0.044
	c-0.176,0.008-0.355,0.042-0.539,0.101c-0.117,0.033-0.234,0.024-0.351-0.026c-0.092-0.033-0.177-0.11-0.257-0.231
	c-0.079-0.121-0.15-0.256-0.213-0.401c-0.062-0.146-0.11-0.296-0.144-0.451c-0.033-0.154-0.042-0.281-0.025-0.382
	c0.025-0.184,0.108-0.301,0.251-0.35c0.251-0.101,0.475-0.265,0.676-0.495c0.201-0.23,0.301-0.486,0.301-0.771
	c0-0.292-0.1-0.547-0.301-0.764s-0.426-0.375-0.676-0.476c-0.073-0.024-0.136-0.084-0.186-0.18c-0.05-0.096-0.076-0.195-0.076-0.294
	c0-0.109,0.017-0.23,0.05-0.364c0.033-0.134,0.077-0.263,0.132-0.389c0.054-0.125,0.118-0.24,0.188-0.345
	c0.071-0.104,0.148-0.182,0.231-0.231c0.067-0.042,0.132-0.058,0.195-0.05c0.062,0.008,0.131,0.025,0.206,0.05
	c0.251,0.101,0.511,0.132,0.783,0.094c0.271-0.038,0.511-0.157,0.72-0.356c0.1-0.101,0.173-0.224,0.219-0.37
	c0.046-0.147,0.076-0.291,0.087-0.433c0.013-0.142,0.013-0.271,0-0.388c-0.012-0.118-0.023-0.201-0.031-0.251
	c-0.017-0.05-0.032-0.109-0.044-0.176c-0.012-0.067-0.006-0.126,0.018-0.176c0.05-0.117,0.14-0.219,0.27-0.306
	c0.129-0.087,0.269-0.161,0.42-0.22c0.151-0.058,0.297-0.101,0.439-0.131c0.142-0.029,0.255-0.044,0.338-0.044
	c0.108,0,0.194,0.035,0.257,0.107c0.062,0.071,0.106,0.145,0.131,0.22c0.092,0.226,0.242,0.423,0.451,0.595
	c0.209,0.171,0.456,0.257,0.739,0.257c0.292,0,0.551-0.082,0.777-0.245s0.384-0.37,0.476-0.62c0.033-0.067,0.086-0.136,0.157-0.206
	c0.071-0.071,0.143-0.107,0.22-0.107c0.116,0,0.244,0.016,0.382,0.05c0.138,0.033,0.274,0.079,0.406,0.138
	c0.135,0.058,0.259,0.134,0.37,0.226c0.113,0.092,0.202,0.192,0.27,0.301c0.042,0.067,0.054,0.14,0.037,0.219
	s-0.033,0.136-0.05,0.169c-0.109,0.242-0.142,0.497-0.101,0.764c0.042,0.267,0.164,0.501,0.363,0.702
	c0.201,0.201,0.447,0.311,0.739,0.332s0.564-0.027,0.815-0.144c0.066-0.042,0.148-0.059,0.244-0.05s0.176,0.046,0.244,0.112
	c0.125,0.117,0.235,0.295,0.331,0.533c0.096,0.238,0.161,0.478,0.194,0.72c0.017,0.142-0.006,0.253-0.068,0.332
	c-0.063,0.079-0.128,0.132-0.195,0.157c-0.259,0.092-0.479,0.253-0.663,0.482c-0.184,0.229-0.276,0.491-0.276,0.783
	c0,0.284,0.077,0.533,0.231,0.746c0.155,0.212,0.357,0.365,0.607,0.457c0.059,0.033,0.109,0.067,0.151,0.1
	C32.866,28.514,32.929,28.61,32.962,28.727L32.962,28.727L32.962,28.727z M27.138,29.854c0.375,0,0.731-0.071,1.064-0.213
	c0.334-0.142,0.625-0.338,0.871-0.589c0.247-0.251,0.441-0.541,0.583-0.871s0.212-0.683,0.212-1.058
	c0-0.376-0.071-0.729-0.212-1.058c-0.142-0.33-0.336-0.619-0.583-0.865s-0.536-0.441-0.871-0.583
	c-0.333-0.142-0.689-0.213-1.064-0.213s-0.729,0.071-1.059,0.213c-0.329,0.142-0.618,0.336-0.863,0.583
	c-0.246,0.246-0.441,0.535-0.583,0.865c-0.142,0.329-0.213,0.683-0.213,1.058s0.071,0.728,0.213,1.058
	c0.142,0.329,0.337,0.619,0.583,0.871c0.246,0.251,0.535,0.446,0.864,0.589C26.41,29.783,26.763,29.854,27.138,29.854L27.138,29.854
	L27.138,29.854z"/>
</svg>
