<?xml version="1.0" encoding="utf-8"?>
<!-- Generator: Adobe Illustrator 17.0.0, SVG Export Plug-In . SVG Version: 6.00 Build 0)  -->
<!DOCTYPE svg PUBLIC "-//W3C//DTD SVG 1.1//EN" "http://www.w3.org/Graphics/SVG/1.1/DTD/svg11.dtd">
<svg version="1.1" id="houtai_x5F_nav_x5F_1_x5F_a" xmlns="http://www.w3.org/2000/svg" xmlns:xlink="http://www.w3.org/1999/xlink"
	 x="0px" y="0px" width="35px" height="35px" viewBox="0 0 35 35" enable-background="new 0 0 35 35" xml:space="preserve">
<path id="s" fill="#999999" d="M30.86,3.003H4.044c-1.111,0-2.011,0.869-2.011,1.941v18.118c0,1.072,0.9,1.941,2.011,1.941H30.86
	c1.111,0,2.011-0.87,2.011-1.941V4.943C32.871,3.872,31.971,3.003,30.86,3.003L30.86,3.003L30.86,3.003z M30.859,22.413
	c0,0.358-0.3,0.647-0.67,0.647H4.714c-0.371,0-0.67-0.289-0.67-0.647V5.59c0-0.358,0.3-0.647,0.67-0.647h25.474
	c0.371,0,0.67,0.289,0.67,0.647L30.859,22.413L30.859,22.413L30.859,22.413z M22.815,28.238c0-0.358-0.301-0.647-0.67-0.647h-9.386
	c-0.37,0-0.67,0.289-0.67,0.647v2.588H5.385v1.941h24.134v-1.941h-6.703v-2.588H22.815L22.815,28.238z M25.471,19.79l-4.299-4.369
	l-0.313-0.385l-0.382,0.385l-2.6,2.643l-4.564-4.64l-0.312-0.33l-0.383,0.33l-5.894,5.991l0.695,0.706l5.547-5.638l4.564,4.64
	l0.37,0.458l0.324-0.458l2.6-2.643l4.564,4.64l0.653,0.585l0.17-0.817l1.965-7.989l-0.953-0.243L25.471,19.79L25.471,19.79
	L25.471,19.79z M15.759,11.067c0,0,1.959,4.132,1.959,5.099c0,0,0.931-3.381,1.727-4.825c0.335-0.404,0.544-0.918,0.544-1.487
	c0-1.281-1.023-2.321-2.283-2.321c-1.262,0-2.284,1.04-2.284,2.321c0,0.447,0.13,0.859,0.345,1.214L15.759,11.067L15.759,11.067
	L15.759,11.067z"/>
</svg>
