<?xml version="1.0" encoding="UTF-8" standalone="no"?>
<svg width="25px" height="25px" viewBox="0 0 25 25" version="1.1" xmlns="http://www.w3.org/2000/svg" xmlns:xlink="http://www.w3.org/1999/xlink">
    <!-- Generator: Sketch 3.8.2 (29753) - http://www.bohemiancoding.com/sketch -->
    <title>Clip 2</title>
    <desc>Created with Sketch.</desc>
    <defs>
        <polygon id="path-1" points="25 3.82287635e-15 25 25 0 25 0 0 25 0"></polygon>
        <circle id="path-3" cx="12.6020508" cy="12.6020508" r="9.60205078"></circle>
        <mask id="mask-4" maskContentUnits="userSpaceOnUse" maskUnits="objectBoundingBox" x="-1" y="-1" width="21.2041016" height="21.2041016">
            <rect x="2" y="2" width="21.2041016" height="21.2041016" fill="white"></rect>
            <use xlink:href="#path-3" fill="black"></use>
        </mask>
    </defs>
    <g id="Symbols" stroke="none" stroke-width="1" fill="none" fill-rule="evenodd">
        <mask id="mask-2" fill="white">
            <use xlink:href="#path-1"></use>
        </mask>
        <g id="Clip-2"></g>
        <g id="Oval-2" mask="url(#mask-2)" stroke-width="2" stroke="#FFFFFF">
            <use mask="url(#mask-4)" xlink:href="#path-3"></use>
        </g>
        <path d="M5.4192667,14.5224609 L5.4192667,9.71112084 L6.36446857,9.71112084 L8.33363914,12.9241508 L8.33363914,9.71112084 L9.23617566,9.71112084 L9.23617566,14.5224609 L8.26143622,14.5224609 L6.32180321,11.3849158 L6.32180321,14.5224609 L5.4192667,14.5224609 Z M10.2634263,14.5224609 L10.2634263,9.71112084 L13.830907,9.71112084 L13.830907,10.5250447 L11.2348838,10.5250447 L11.2348838,11.5916787 L13.6503997,11.5916787 L13.6503997,12.4023206 L11.2348838,12.4023206 L11.2348838,13.7118191 L13.9228016,13.7118191 L13.9228016,14.5224609 L10.2634263,14.5224609 Z M15.4292171,14.5224609 L14.2805343,9.71112084 L15.2749654,9.71112084 L16.0002766,13.0160455 L16.8798394,9.71112084 L18.0350862,9.71112084 L18.8785475,13.0718386 L19.6169865,9.71112084 L20.5950079,9.71112084 L19.4266334,14.5224609 L18.3961008,14.5224609 L17.4377711,10.9254427 L16.4827234,14.5224609 L15.4292171,14.5224609 Z" id="NEW" fill="#FFFFFF" mask="url(#mask-2)"></path>
    </g>
</svg>