<?xml version="1.0" encoding="utf-8"?>
<!-- Generator: Adobe Illustrator 17.0.0, SVG Export Plug-In . SVG Version: 6.00 Build 0)  -->
<!DOCTYPE svg PUBLIC "-//W3C//DTD SVG 1.1//EN" "http://www.w3.org/Graphics/SVG/1.1/DTD/svg11.dtd">
<svg version="1.1" id="houtai_x5F_lefticon_x5F_2" xmlns="http://www.w3.org/2000/svg" xmlns:xlink="http://www.w3.org/1999/xlink"
	 x="0px" y="0px" width="25px" height="25px" viewBox="0 0 25 25" enable-background="new 0 0 25 25" xml:space="preserve">
<path id="Shape" fill="#ECF0F1" d="M10.286,11.58h8.227c0.351,0,0.636-0.319,0.636-0.712s-0.285-0.712-0.636-0.712h-8.227
	c-0.352,0-0.637,0.319-0.637,0.712S9.935,11.58,10.286,11.58L10.286,11.58z"/>
<path id="Shape_1_" fill="#ECF0F1" d="M19.15,3.029h-9.5c-1.369,0-2.85,1.005-2.85,2.375v14.251c0,0.656-0.77,0.95-1.425,0.95
	s-0.95-0.294-0.95-0.95V10.63c0-1.088-0.42-1.093-0.778-1.093S3,9.537,3,10.63v8.916c0,1.37,1.006,2.484,2.375,2.484
	s2.85-1.005,2.85-2.375V5.404c0-0.655,0.77-0.95,1.425-0.95h9.5c0.655,0,1.425,0.294,1.425,0.95v14.251
	c0,0.656-0.77,0.95-1.425,0.95l-9.413,0.129c-0.358,0-0.647,0.29-0.647,0.648s0.29,0.648,0.647,0.648h9.65
	c1.369,0,2.613-1.005,2.613-2.375V5.404C22,4.034,20.519,3.029,19.15,3.029L19.15,3.029z"/>
<path id="Shape_2_" fill="#ECF0F1" d="M10.286,14.43h8.227c0.351,0,0.636-0.319,0.636-0.712s-0.285-0.713-0.636-0.713h-8.227
	c-0.352,0-0.637,0.319-0.637,0.713S9.935,14.43,10.286,14.43L10.286,14.43z"/>
<path id="Shape_3_" fill="#ECF0F1" d="M10.286,8.254h8.227c0.351,0,0.636-0.319,0.636-0.713c0-0.393-0.285-0.713-0.636-0.713h-8.227
	c-0.352,0-0.637,0.319-0.637,0.713C9.65,7.935,9.935,8.254,10.286,8.254L10.286,8.254z"/>
<path id="Shape_4_" fill="#ECF0F1" d="M10.286,17.755h8.227c0.351,0,0.636-0.319,0.636-0.712s-0.285-0.713-0.636-0.713h-8.227
	c-0.352,0-0.637,0.319-0.637,0.713C9.65,17.436,9.935,17.755,10.286,17.755L10.286,17.755z"/>
</svg>
