<?xml version="1.0" encoding="UTF-8" standalone="no"?>
<svg width="25px" height="25px" viewBox="0 0 25 25" version="1.1" xmlns="http://www.w3.org/2000/svg" xmlns:xlink="http://www.w3.org/1999/xlink">
    <!-- Generator: Sketch 3.7 (28169) - http://www.bohemiancoding.com/sketch -->
    <title>Rectangle 654</title>
    <desc>Created with Sketch.</desc>
    <defs>
        <polygon id="path-1" points="18.0952381 0.0135191823 18.0952381 18.7654321 0 18.7654321 0 0.0135191823 18.0952381 0.0135191823"></polygon>
    </defs>
    <g id="后台管理_众筹清算" stroke="none" stroke-width="1" fill="none" fill-rule="evenodd">
        <g id="理财清算" transform="translate(3.000000, 3.000000)">
            <mask id="mask-2" fill="white">
                <use xlink:href="#path-1"></use>
            </mask>
            <g id="Clip-2"></g>
            <path d="M11.7077957,3.01535776 C11.450702,2.74923669 11.0257037,2.74187176 10.7585402,2.998711 L9.15861327,4.54083101 L7.61973567,3.0066056 C7.35729163,2.74452011 6.93241947,2.74510023 6.66977353,3.0073875 C6.40793518,3.26944776 6.40864183,3.69401566 6.67048018,3.95607593 L8.18914259,5.47019912 L7.15511456,5.47019912 C6.78462908,5.47019912 6.48384937,5.77062259 6.48384937,6.14076065 C6.48384937,6.51082305 6.78462908,6.81122129 7.15511456,6.81122129 L8.49327887,6.81122129 L8.49327887,7.48178282 L7.15511456,7.48178282 C6.78462908,7.48178282 6.48384937,7.78218107 6.48384937,8.15234435 C6.48384937,8.52240674 6.78462908,8.82280499 7.15511456,8.82280499 L8.49327887,8.82280499 L8.49327887,10.1987097 C8.49327887,10.5694531 8.79405858,10.8692712 9.16464502,10.8692712 C9.53581191,10.8692712 9.83598592,10.5694531 9.83598592,10.1987097 L9.83598592,8.82280499 L11.1848257,8.82280499 C11.5560935,8.82280499 11.8561666,8.52240674 11.8561666,8.15234435 C11.8561666,7.7821054 11.5560935,7.48178282 11.1848257,7.48178282 L9.83598592,7.48178282 L9.83598592,6.81122129 L11.1848257,6.81122129 C11.5560935,6.81122129 11.8561666,6.51082305 11.8561666,6.14076065 C11.8561666,5.77062259 11.5560935,5.47019912 11.1848257,5.47019912 L10.1280839,5.47019912 L11.6903566,3.96414709 C11.9575201,3.70602151 11.9649147,3.28226072 11.7077957,3.01535776 L11.7077957,3.01535776 Z M17.6936096,14.1227532 C17.2646742,13.9462976 16.0098944,13.4353432 14.7214983,12.9338471 C16.0245826,11.5190495 16.7685063,9.65367981 16.7685063,7.72454799 C16.7685063,3.47271472 13.3041642,0.0135191823 9.04633194,0.0135191823 C4.7891054,0.0135191823 1.32546988,3.47271472 1.32546988,7.72454799 C1.32546988,8.06446967 1.34694693,8.40239878 1.38992628,8.72960839 C1.43833167,9.0964171 1.77805273,9.35118811 2.14321312,9.30765432 C2.51112439,9.25937873 2.77031281,8.92281163 2.72190742,8.55532192 C2.68639835,8.28574539 2.66827788,8.00623125 2.66827788,7.72454799 C2.66827788,4.21233506 5.52964734,1.35454135 9.04633194,1.35454135 C12.5636979,1.35454135 15.4256983,4.21233506 15.4256983,7.72454799 C15.4256983,9.50007567 14.7100658,11.1475999 13.40895,12.3652595 C13.392798,12.3807461 13.3860849,12.4021094 13.3707153,12.4182769 C12.4716318,12.0842825 11.7063319,11.821516 11.4035837,11.7758888 C10.8811689,11.6941179 10.382452,11.9354202 10.0796028,12.3813262 C9.82712758,12.7541378 9.76332736,13.1947471 9.90972969,13.5601686 C9.99965066,13.7834369 10.3400531,14.2493694 10.7442558,14.7603996 C9.77014146,14.7590376 8.28289965,14.6277048 6.69856944,14.0167437 C6.04259813,13.7640409 5.24168825,12.9138457 4.53466162,12.1641869 C3.52831905,11.0959697 2.57757455,10.0874791 1.54362224,10.0874791 C1.15895331,10.0874791 0.793691971,10.2310195 0.487587169,10.5018824 C0.104886764,10.8417788 -0.249623431,11.5143077 0.235818556,12.7909877 C1.13005645,15.1413076 4.61115627,18.7654321 7.40541941,18.7654321 L17.4371973,18.7654321 C17.8084652,18.7654321 18.1085382,18.4657401 18.1085382,18.0948958 L18.1085382,14.7422899 C18.1099263,14.4714271 17.9454792,14.2260135 17.6936096,14.1227532 L17.6936096,14.1227532 Z M7.42828452,17.4250153 L7.40678223,18.0955768 L7.40678223,17.4250153 C5.35911802,17.4250153 2.22316531,14.2374393 1.49196121,12.3149157 C1.27981537,11.7563919 1.35098492,11.5311562 1.37978083,11.5056312 C1.46642093,11.4291823 1.51671913,11.4291823 1.54430365,11.4291823 C1.99809789,11.4291823 2.89983131,12.3853617 3.55779637,13.0834156 C4.40166036,13.9792128 5.27512785,14.9052516 6.21502026,15.2679238 C8.00301654,15.9573012 9.67471874,16.102128 10.7623763,16.102128 C11.6305187,16.102128 12.1803161,16.0108987 12.2030803,16.0068379 C12.4407664,15.9660534 12.6382241,15.8024107 12.7207505,15.5763932 C12.8039583,15.3503757 12.7596918,15.0976729 12.6046078,14.9139028 C12.0379518,14.241374 11.3752673,13.4093389 11.1926997,13.1256883 C11.1988072,13.1136572 11.2034509,13.1041989 11.2000943,13.1015505 C11.6794036,13.174544 14.6080308,14.3157799 16.7657302,15.1935179 L16.7657302,17.4250153 L7.42828452,17.4250153 Z" id="Fill-1" fill="#FFFFFF" mask="url(#mask-2)"></path>
        </g>
    </g>
</svg>