<?xml version="1.0" encoding="UTF-8" standalone="no"?>
<svg width="22px" height="25px" viewBox="0 0 22 25" version="1.1" xmlns="http://www.w3.org/2000/svg" xmlns:xlink="http://www.w3.org/1999/xlink">
    <!-- Generator: Sketch 3.7 (28169) - http://www.bohemiancoding.com/sketch -->
    <title>图形</title>
    <desc>Created with Sketch.</desc>
    <defs></defs>
    <g id="众筹管理" stroke="none" stroke-width="1" fill="none" fill-rule="evenodd">
        <g id="0-用户登录" transform="translate(-817.000000, -483.000000)" fill="#576675">
            <g id="输入框" transform="translate(800.000000, 393.000000)">
                <g id="Group" transform="translate(0.187500, 75.469231)">
                    <g id="iconfont-mima-2" transform="translate(16.843750, 15.192308)">
                        <g id="图形">
                            <path d="M3.21946636,6.86280178 C3.27675474,6.88221064 3.33649067,6.89206851 3.39699145,6.89206851 C3.63562926,6.89206851 3.84719085,6.73963608 3.92360081,6.51267516 C3.98620497,6.3262964 4.05645782,6.14049302 4.13237065,5.96044325 C5.36865973,3.02889994 8.21793381,1.13461828 11.3912811,1.13461828 C14.1220011,1.13461828 16.619208,2.52196817 18.0713419,4.84577634 C18.1736426,5.00948585 18.3497144,5.10718223 18.5424603,5.10718223 C18.6467497,5.10718223 18.7486679,5.07768539 18.837048,5.02199038 C18.9627918,4.94297407 19.0503306,4.81953987 19.0835257,4.67447207 C19.1166825,4.52940427 19.091595,4.3800788 19.0126992,4.25392122 C18.2189226,2.98348476 17.1119338,1.92190454 15.8114344,1.1839076 C14.4697851,0.422550956 12.9412795,0.0201431701 11.3912046,0.0201431701 C7.77037323,0.0201431701 4.51935398,2.18143092 3.10890518,5.52635226 C3.0219018,5.7328303 2.94170574,5.94498526 2.87057334,6.15691007 C2.82318998,6.297912 2.8334009,6.44904025 2.89940874,6.58240905 C2.96541659,6.71577785 3.07907545,6.81535363 3.21946636,6.86280178 L3.21946636,6.86280178 Z" id="Shape"></path>
                            <path d="M10.2706396,17.8563097 C10.2706396,18.2428375 10.5841194,18.5572918 10.96942,18.5572918 C11.3547206,18.5572918 11.6682386,18.2428375 11.6682386,17.8563097 L11.6682386,15.6404777 C12.3960074,15.3540628 12.8770691,14.6529273 12.8770691,13.8598874 C12.8770691,12.8049047 12.021262,11.9466188 10.9693435,11.9466188 C9.91757803,11.9466188 9.06180912,12.8049047 9.06180912,13.8598874 C9.06196208,14.6529657 9.54294726,15.3541395 10.2706396,15.6404777 L10.2706396,17.8563097 Z" id="Shape"></path>
                            <path d="M20.1506649,8.19349776 L1.78848096,8.19349776 C0.809339365,8.19349776 0.0127327567,8.99252137 0.0127327567,9.97458666 L0.0127327567,22.2728993 C0.0127327567,23.255003 0.809339365,24.054065 1.78848096,24.054065 L20.1507032,24.054065 C21.1298065,24.054065 21.9263367,23.2550414 21.9263367,22.2728993 L21.9263367,9.97458666 C21.9262602,8.99252137 21.12973,8.19349776 20.1506649,8.19349776 L20.1506649,8.19349776 Z M20.8153324,22.2728993 C20.8153324,22.6404402 20.5171881,22.9394747 20.1507032,22.9394747 L1.78848096,22.9394747 C1.42199604,22.9394747 1.12385177,22.6404402 1.12385177,22.2728993 L1.12385173,9.97458666 C1.12385173,9.60700742 1.421996,9.30801125 1.78848092,9.30801125 L20.1507031,9.30801125 C20.5171881,9.30801125 20.8153323,9.60704577 20.8153323,9.97458666 L20.8153324,22.2728993 L20.8153324,22.2728993 Z" id="Shape"></path>
                        </g>
                    </g>
                </g>
            </g>
        </g>
    </g>
</svg>