<?xml version="1.0" encoding="utf-8"?>
<!-- Generator: Adobe Illustrator 17.0.0, SVG Export Plug-In . SVG Version: 6.00 Build 0)  -->
<!DOCTYPE svg PUBLIC "-//W3C//DTD SVG 1.1//EN" "http://www.w3.org/Graphics/SVG/1.1/DTD/svg11.dtd">
<svg version="1.1" id="houtai_x5F_lefticon_x5F_1" xmlns="http://www.w3.org/2000/svg" xmlns:xlink="http://www.w3.org/1999/xlink"
	 x="0px" y="0px" width="25px" height="25px" viewBox="0 0 25 25" enable-background="new 0 0 25 25" xml:space="preserve">
<path id="Shape" fill="#ECF0F1" d="M12.79,4c2.135,0,3.975,1.586,4.299,3.679c0.338-0.103,0.685-0.16,1.028-0.16
	c0.953,0,1.835,0.39,2.45,1.028c0.629,0.615,1.023,1.478,1.023,2.44c0,0.911-0.361,1.741-0.929,2.365l0.821,0.826
	c0.366,0.371,0.638,0.774,0.835,1.234l0,0c0.178,0.441,0.286,0.925,0.286,1.441V17.9c0,0.263-0.098,0.554-0.253,0.774
	c-0.174,0.239-0.422,0.404-0.737,0.441H20.74v0.291c0,0.347-0.286,0.624-0.629,0.624H5.483c-0.347,0-0.634-0.277-0.634-0.624v-0.291
	H3.976c-0.315-0.038-0.573-0.202-0.751-0.441C3.075,18.455,3,18.164,3,17.901v-1.037c0-0.516,0.084-1,0.272-1.441h0.014
	c0.338-0.849,1.014-1.436,1.638-2.06c-0.577-0.624-0.939-1.455-0.939-2.365c0-0.962,0.399-1.826,1.023-2.44
	C5.646,7.92,6.505,7.53,7.467,7.53c0.347,0,0.69,0.052,1.014,0.16C8.81,5.586,10.65,4,12.79,4L12.79,4L12.79,4L12.79,4L12.79,4z
	 M12.79,18.755L12.79,18.755h1.962v-2.872c0-0.202,0.174-0.385,0.375-0.385c0.216,0,0.385,0.183,0.385,0.385v1.685h1.643
	c0.014-0.028,0.028-0.099,0.028-0.16v-1.347c0-1.826-1.201-2.661-2.389-3.848c-0.601,0.314-1.286,0.497-2.004,0.497
	c-0.727,0-1.413-0.178-2.013-0.497c-1.178,1.187-2.379,2.023-2.379,3.848v1.347c0,0.061,0.014,0.127,0.014,0.16h1.652v-1.685
	c0-0.202,0.164-0.385,0.375-0.385c0.216,0,0.385,0.183,0.385,0.385v2.872H12.79L12.79,18.755z M12.79,11.439L12.79,11.439
	c1.675,0,3.079-1.361,3.079-3.079c0-1.704-1.375-3.079-3.079-3.079S9.702,6.656,9.702,8.36C9.707,10.078,11.114,11.439,12.79,11.439
	L12.79,11.439L12.79,11.439L12.79,11.439L12.79,11.439z M6.126,18.755L6.126,18.755h1.849c-0.239-0.066-0.436-0.235-0.577-0.427
	c-0.183-0.263-0.277-0.591-0.277-0.915v-1.347c0-0.563,0.089-1.103,0.263-1.591c-0.512-0.033-0.986-0.136-1.417-0.347
	c-0.535,0.526-1.234,1.065-1.516,1.76c-0.122,0.3-0.178,0.624-0.178,0.976v0.99h1.103v-1.136c0-0.202,0.174-0.375,0.375-0.375
	c0.211,0,0.385,0.174,0.385,0.375L6.126,18.755L6.126,18.755z M8.486,9.05L8.486,9.05C8.383,8.989,8.247,8.937,8.125,8.9
	C7.914,8.834,7.688,8.801,7.463,8.801c-0.61,0-1.164,0.235-1.553,0.652c-0.399,0.385-0.638,0.934-0.638,1.539
	c0,0.61,0.239,1.164,0.638,1.549c0.39,0.404,0.948,0.638,1.553,0.638c0.239,0,0.474-0.023,0.704-0.099
	c0.46-0.577,1.042-1.089,1.572-1.624C9.087,10.8,8.646,9.965,8.486,9.05L8.486,9.05L8.486,9.05L8.486,9.05L8.486,9.05z
	 M19.45,18.755L19.45,18.755v-2.037c0-0.202,0.174-0.375,0.375-0.375c0.216,0,0.39,0.174,0.39,0.375v1.136h1.103v-0.99
	c0-0.352-0.066-0.676-0.183-0.976c-0.122-0.286-0.315-0.554-0.563-0.803l-0.953-0.953c-0.437,0.211-0.915,0.315-1.427,0.347
	c0.178,0.488,0.272,1.028,0.272,1.591v1.347c0,0.324-0.103,0.652-0.286,0.915c-0.141,0.197-0.338,0.361-0.573,0.427h1.844
	L19.45,18.755L19.45,18.755L19.45,18.755z M17.089,9.05L17.089,9.05c-0.174,0.972-0.563,1.727-1.248,2.412
	c0.516,0.535,1.098,1.042,1.572,1.624c0.061,0.014,0.211,0.066,0.263,0.066c0.136,0.014,0.291,0.028,0.441,0.028
	c0.601,0,1.159-0.235,1.553-0.638c0.399-0.385,0.652-0.939,0.652-1.549s-0.258-1.159-0.652-1.539
	c-0.399-0.422-0.953-0.652-1.553-0.652c-0.239,0-0.46,0.033-0.662,0.098C17.324,8.937,17.216,8.989,17.089,9.05L17.089,9.05
	L17.089,9.05L17.089,9.05L17.089,9.05z"/>
</svg>
