<?xml version="1.0" encoding="UTF-8" standalone="no"?>
<svg width="22px" height="22px" viewBox="0 0 22 22" version="1.1" xmlns="http://www.w3.org/2000/svg" xmlns:xlink="http://www.w3.org/1999/xlink">
    <!-- Generator: Sketch 3.7 (28169) - http://www.bohemiancoding.com/sketch -->
    <title>Shape</title>
    <desc>Created with Sketch.</desc>
    <defs></defs>
    <g id="众筹管理" stroke="none" stroke-width="1" fill="none" fill-rule="evenodd">
        <g id="0-用户登录" transform="translate(-817.000000, -408.000000)" fill="#576675">
            <g id="输入框" transform="translate(800.000000, 393.000000)">
                <g id="iconfont-zhaopiantouxiang" transform="translate(17.000000, 15.000000)">
                    <g id="图形">
                        <path d="M18.1693415,7.27779953 C18.1693415,3.37092165 15.0126696,0.203771606 11.1187173,0.203771606 C7.2247649,0.203771606 4.06809305,3.37092165 4.06809305,7.27779953 C4.06809305,9.45991839 5.05284451,11.4112727 6.60079444,12.7089105 C3.71929654,13.9138542 1.46218021,16.2782691 0.411670822,19.2294589 C-0.0993258768,20.547229 0.916060554,22.0244269 2.3325548,22.0244269 L2.3325548,20.9361149 C1.67687605,20.9361149 1.18893378,20.2262504 1.42790821,19.6097053 C2.46043036,16.7096733 4.76927926,14.4441283 7.68966356,13.4603073 C8.70467356,14.0282277 9.87402991,14.3518274 11.1187173,14.3518274 C12.38802,14.3518274 13.5789827,14.0153023 14.6078087,13.4263269 C17.4997838,14.4208362 19.7840412,16.6750285 20.8042454,19.5410818 C21.0154414,20.2133359 20.5596533,20.8816994 19.9048797,20.8816994 L19.9048797,21.9700113 C21.3110579,21.9700113 22.2653945,20.570582 21.8321857,19.1942003 C20.7810272,16.2401657 18.5406235,13.8831284 15.679625,12.6725854 C17.2027974,11.3750052 18.1693415,9.4396513 18.1693415,7.27779953 L18.1693415,7.27779953 Z M5.15280449,7.27779953 C5.15280449,3.97198003 7.82383475,1.2920836 11.1187173,1.2920836 C14.4135998,1.2920836 17.08463,3.97198003 17.08463,7.27779953 C17.08463,10.583619 14.4135998,13.2635154 11.1187173,13.2635154 C7.82383475,13.2635154 5.15280449,10.583619 5.15280449,7.27779953 L5.15280449,7.27779953 Z" id="Shape"></path>
                    </g>
                </g>
            </g>
        </g>
    </g>
</svg>