<?xml version="1.0" encoding="utf-8"?>
<!-- Generator: Adobe Illustrator 17.0.0, SVG Export Plug-In . SVG Version: 6.00 Build 0)  -->
<!DOCTYPE svg PUBLIC "-//W3C//DTD SVG 1.1//EN" "http://www.w3.org/Graphics/SVG/1.1/DTD/svg11.dtd">
<svg version="1.1" id="houtai_x5F_nav_x5F_5_x5F_c" xmlns="http://www.w3.org/2000/svg" xmlns:xlink="http://www.w3.org/1999/xlink"
	 x="0px" y="0px" width="35px" height="35px" viewBox="0 0 35 35" enable-background="new 0 0 35 35" xml:space="preserve">
<path id="Shape" fill="#388BED" d="M30.048,4.006H4.553c-1.955,0-3.546,1.662-3.546,3.705v19.912c0,2.044,1.591,3.706,3.546,3.706
	h25.496c1.957,0,3.547-1.662,3.547-3.706V7.711C33.596,5.667,32.005,4.006,30.048,4.006L30.048,4.006z M31.729,27.623
	c0,0.969-0.754,1.757-1.681,1.757H4.553c-0.925,0-1.679-0.788-1.679-1.757V7.711c0-0.969,0.754-1.757,1.679-1.757h25.496
	c0.927,0,1.681,0.788,1.681,1.757L31.729,27.623L31.729,27.623z M28.733,11.416H18.285c-0.516,0-0.933,0.436-0.933,0.974
	s0.417,0.974,0.933,0.974h10.447c0.515,0,0.933-0.436,0.933-0.974C29.666,11.852,29.248,11.416,28.733,11.416L28.733,11.416z
	 M28.733,16.386H18.285c-0.516,0-0.933,0.436-0.933,0.974s0.417,0.974,0.933,0.974h10.447c0.515,0,0.933-0.436,0.933-0.974
	C29.666,16.822,29.248,16.386,28.733,16.386L28.733,16.386z M28.733,21.356h-8.815c-0.516,0-0.933,0.436-0.933,0.974
	s0.417,0.974,0.933,0.974h8.815c0.515,0,0.933-0.436,0.933-0.974C29.666,21.791,29.248,21.356,28.733,21.356L28.733,21.356z
	 M14.329,18.776c1.069-0.93,1.752-2.33,1.752-3.893c0-2.792-2.175-5.064-4.848-5.064c-2.675,0-4.85,2.272-4.85,5.064
	c0,1.563,0.682,2.963,1.752,3.893c-1.892,0.902-3.382,2.618-4.036,4.815c-0.153,0.513,0.122,1.059,0.614,1.22
	c0.496,0.158,1.015-0.128,1.169-0.641c0.738-2.48,2.887-4.146,5.351-4.146c2.462,0,4.611,1.666,5.349,4.146
	c0.124,0.418,0.495,0.685,0.891,0.685c0.091,0,0.184-0.014,0.276-0.044c0.492-0.16,0.767-0.706,0.614-1.22
	C17.71,21.393,16.22,19.678,14.329,18.776L14.329,18.776z M11.233,17.998c-1.645,0-2.985-1.397-2.985-3.116
	c0-1.718,1.339-3.116,2.985-3.116c1.645,0,2.983,1.397,2.983,3.116C14.215,16.601,12.877,17.998,11.233,17.998L11.233,17.998z"/>
</svg>
