<?xml version="1.0" encoding="UTF-8" standalone="no"?>
<svg width="16px" height="16px" viewBox="0 0 16 16" version="1.1" xmlns="http://www.w3.org/2000/svg" xmlns:xlink="http://www.w3.org/1999/xlink">
    <!-- Generator: Sketch 3.7 (28169) - http://www.bohemiancoding.com/sketch -->
    <title>Page 1</title>
    <desc>Created with Sketch.</desc>
    <defs>
        <polygon id="path-1" points="8 15.9777159 16 15.9777159 16 0.0220167131 0 0.0220167131 0 15.9777159"></polygon>
    </defs>
    <g id="后台管理_众筹清算" stroke="none" stroke-width="1" fill="none" fill-rule="evenodd">
        <g id="1" transform="translate(-1056.000000, -353.000000)">
            <g id="查询面板" transform="translate(556.000000, 226.000000)">
                <g id="交易创建时间" transform="translate(12.000000, 122.000000)">
                    <g id="Page-1" transform="translate(488.000000, 5.000000)">
                        <mask id="mask-2" fill="white">
                            <use xlink:href="#path-1"></use>
                        </mask>
                        <g id="Clip-2"></g>
                        <path d="M14.750257,1.50391086 L13.9745922,1.50391086 L13.9745922,1.27411699 C13.9745922,0.585225627 13.4120223,0.0220167131 12.7246034,0.0220167131 L12.7061006,0.0220167131 C12.0185922,0.0220167131 11.4560894,0.585225627 11.4560894,1.27411699 L11.4560894,1.50391086 L4.54303911,1.50391086 L4.54303911,1.27411699 C4.54303911,0.585225627 3.98053631,0.0220167131 3.29302793,0.0220167131 L3.27401117,0.0220167131 C2.58650279,0.0220167131 2.024,0.585225627 2.024,1.27411699 L2.024,1.50391086 L1.25001117,1.50391086 C0.562502793,1.50391086 0,2.06763231 0,2.75556546 L0,14.7256156 C0,15.414507 0.562502793,15.9777159 1.25001117,15.9777159 L14.750257,15.9777159 C15.4377654,15.9777159 16.0002682,15.414507 16.0002682,14.7256156 L16.0002682,2.75556546 C16.0002682,2.06763231 15.4377654,1.50391086 14.750257,1.50391086 L14.750257,1.50391086 Z M11.9560894,1.27411699 C11.9560894,0.860100279 12.292067,0.522896936 12.7061006,0.522896936 L12.7246034,0.522896936 C13.1381006,0.522896936 13.4745922,0.860100279 13.4745922,1.27411699 L13.4745922,3.50121448 C13.4745922,3.91520891 13.1381006,4.25243454 12.7246034,4.25243454 L12.7061006,4.25243454 C12.292067,4.25243454 11.9560894,3.91520891 11.9560894,3.50121448 L11.9560894,1.27411699 L11.9560894,1.27411699 Z M2.524,1.27411699 C2.524,0.860100279 2.85997765,0.522896936 3.27410056,0.522896936 L3.29302793,0.522896936 C3.70601117,0.522896936 4.04303911,0.860100279 4.04303911,1.27411699 L4.04303911,3.50121448 C4.04303911,3.91520891 3.70601117,4.25243454 3.29302793,4.25243454 L3.27410056,4.25243454 C2.85997765,4.25243454 2.524,3.91520891 2.524,3.50121448 L2.524,1.27411699 L2.524,1.27411699 Z M14.750257,14.9765794 L1.25001117,14.9765794 C1.11443575,14.9765794 1,14.8602786 1,14.7256156 L1,5.92470195 L15.0002682,5.92470195 L15.0002682,14.7256156 C15.0002682,14.8602786 14.8858324,14.9765794 14.750257,14.9765794 L14.750257,14.9765794 Z" id="Fill-1" fill="#8899AA" mask="url(#mask-2)"></path>
                        <polygon id="Fill-3" fill="#8899AA" mask="url(#mask-2)" points="2.83747486 7.71725905 5.14402235 7.71725905 5.14402235 8.84904735 2.83747486 8.84904735"></polygon>
                        <polygon id="Fill-4" fill="#8899AA" mask="url(#mask-2)" points="6.86478212 7.71725905 9.15311732 7.71725905 9.15311732 8.84904735 6.86478212 8.84904735"></polygon>
                        <polygon id="Fill-5" fill="#8899AA" mask="url(#mask-2)" points="10.8738547 7.71725905 13.1255196 7.71725905 13.1255196 8.84904735 10.8738547 8.84904735"></polygon>
                        <polygon id="Fill-6" fill="#8899AA" mask="url(#mask-2)" points="2.83747486 10.0174039 5.14402235 10.0174039 5.14402235 11.1309192 2.83747486 11.1309192"></polygon>
                        <polygon id="Fill-7" fill="#8899AA" mask="url(#mask-2)" points="6.86478212 10.0174039 9.15311732 10.0174039 9.15311732 11.1309192 6.86478212 11.1309192"></polygon>
                        <polygon id="Fill-8" fill="#8899AA" mask="url(#mask-2)" points="10.8738547 10.0174039 13.1255196 10.0174039 13.1255196 11.1309192 10.8738547 11.1309192"></polygon>
                        <polygon id="Fill-9" fill="#8899AA" mask="url(#mask-2)" points="2.83747486 12.2627967 5.14402235 12.2627967 5.14402235 13.4311309 2.83747486 13.4311309"></polygon>
                        <polygon id="Fill-10" fill="#8899AA" mask="url(#mask-2)" points="6.86478212 12.2627967 9.15311732 12.2627967 9.15311732 13.4311309 6.86478212 13.4311309"></polygon>
                        <polygon id="Fill-11" fill="#8899AA" mask="url(#mask-2)" points="10.8738547 12.2627967 13.1255196 12.2627967 13.1255196 13.4311309 10.8738547 13.4311309"></polygon>
                    </g>
                </g>
            </g>
        </g>
    </g>
</svg>