<?xml version="1.0" encoding="utf-8"?>
<!-- Generator: Adobe Illustrator 17.0.0, SVG Export Plug-In . SVG Version: 6.00 Build 0)  -->
<!DOCTYPE svg PUBLIC "-//W3C//DTD SVG 1.1//EN" "http://www.w3.org/Graphics/SVG/1.1/DTD/svg11.dtd">
<svg version="1.1" id="houtai_x5F_nav_x5F_2_x5F_c" xmlns="http://www.w3.org/2000/svg" xmlns:xlink="http://www.w3.org/1999/xlink"
	 x="0px" y="0px" width="35px" height="35px" viewBox="0 0 35 35" enable-background="new 0 0 35 35" xml:space="preserve">
<path id="Shape" fill="#388BED" d="M18.254,4.73c0-0.036-0.002-0.072-0.005-0.107h-5.577c-0.003,0.035-0.005,0.071-0.005,0.107
	v24.595h5.588L18.254,4.73L18.254,4.73z"/>
<path id="Shape_1_" fill="#388BED" d="M5.556,11.705h5.587v17.62H5.556V11.705L5.556,11.705z"/>
<path id="Shape_2_" fill="#388BED" d="M19.778,17.607h5.588v11.718h-5.588V17.607L19.778,17.607z"/>
<path id="Shape_3_" fill="#388BED" d="M26.89,11.705h5.587v17.62H26.89V11.705L26.89,11.705z"/>
<path id="Shape_4_" fill="#388BED" d="M34.085,30.796H4.032V3.063c0-0.013-0.002-0.026-0.002-0.04H2.002C2.002,3.037,2,3.05,2,3.063
	v29.694h32.085c0.016,0,0.032-0.002,0.048-0.002v-1.956C34.117,30.798,34.101,30.796,34.085,30.796L34.085,30.796z"/>
</svg>
